<svg height="64" preserveAspectRatio="xMidYMid" viewBox="0 0 512 64" width="512" xmlns="http://www.w3.org/2000/svg" xmlns:xlink="http://www.w3.org/1999/xlink"><linearGradient id="a" x1="-2.777778%" x2="100%" y1="32%" y2="67.555556%"><stop offset="0" stop-color="#2298bd"/><stop offset="1" stop-color="#0ed7b5"/></linearGradient><path d="m52.8666139 0c-14.0977637 0-22.908866 7.04888185-26.433307 21.1466456 5.2866614-7.0488819 11.4544331-9.6922126 18.5033149-7.9299921 4.0217787 1.0054446 6.8963519 3.9230943 10.0781388 7.1528528 5.1832778 5.2612071 11.1822679 11.350462 24.2851602 11.350462 14.0977637 0 22.9088662-7.0488818 26.4333072-21.1466455-5.286662 7.0488818-11.4544332 9.6922125-18.5033151 7.9299921-4.0217787-1.0054447-6.8963519-3.9230944-10.0781388-7.1528529-5.1832778-5.26120709-11.1822679-11.350462-24.2851602-11.350462zm-26.433307 31.7199683c-14.0977637 0-22.90886597 7.0488819-26.4333069 21.1466456 5.28666139-7.0488819 11.454433-9.6922126 18.5033149-7.9299921 4.0217787 1.0054447 6.8963518 3.9230944 10.0781388 7.1528529 5.1832778 5.2612071 11.1822678 11.350462 24.2851602 11.350462 14.0977637 0 22.908866-7.0488819 26.4333069-21.1466456-5.2866614 7.0488819-11.454433 9.6922126-18.5033148 7.9299921-4.0217787-1.0054447-6.8963519-3.9230944-10.0781389-7.1528529-5.1832777-5.2612071-11.1822678-11.350462-24.2851602-11.350462z" fill="url(#a)"/><path d="m158.59201 26.7309264h-9.226204v17.8571674c0 4.7619112 3.125005 4.6875064 9.226204 4.3898869v7.2172718c-12.351208 1.4880973-17.261929-1.9345264-17.261929-11.6071587v-17.8571674h-6.845247v-7.7381059h6.845247v-9.993748l8.035725-2.38095565v12.37470365h9.226204zm35.170004-7.7381059h8.035725v37.202432h-8.035725v-5.3571502c-2.827385 3.9434578-7.217272 6.3244135-13.020851 6.3244135-10.119062 0-18.526811-8.5565594-18.526811-19.5684793 0-11.0863247 8.407749-19.5684792 18.526811-19.5684792 5.803579 0 10.193466 2.3809557 13.020851 6.2500086zm-11.755969 30.5059943c6.696438 0 11.755969-4.9851259 11.755969-11.9047783 0-6.9196523-5.059531-11.9047782-11.755969-11.9047782-6.696437 0-11.755968 4.9851259-11.755968 11.9047782 0 6.9196524 5.059531 11.9047783 11.755968 11.9047783zm33.18457-36.0863591c-2.827385 0-5.133936-2.3809556-5.133936-5.13393557 0-2.82738483 2.306551-5.13393562 5.133936-5.13393562s5.133935 2.30655079 5.133935 5.13393562c0 2.75297997-2.30655 5.13393557-5.133935 5.13393557zm-4.017863 42.7827968v-37.202432h8.035725v37.202432zm17.336333 0v-54.31555067h8.035726v54.31555067zm60.193535-37.202432h8.482155l-11.681564 37.202432h-7.886915l-7.738106-25.0744391-7.812511 25.0744391h-7.886915l-11.681564-37.202432h8.482154l7.217272 25.6696781 7.812511-25.6696781h7.663701l7.738106 25.6696781zm18.452407-5.5803648c-2.827385 0-5.133936-2.3809556-5.133936-5.13393557 0-2.82738483 2.306551-5.13393562 5.133936-5.13393562 2.827384 0 5.133935 2.30655079 5.133935 5.13393562 0 2.75297997-2.306551 5.13393557-5.133935 5.13393557zm-4.017863 42.7827968v-37.202432h8.035725v37.202432zm36.904813-38.1696952c8.333344 0 14.285733 5.6547697 14.285733 15.327402v22.8422932h-8.035725v-22.0238397c0-5.6547697-3.273814-8.6309642-8.333345-8.6309642-5.282745 0-9.449417 3.1250043-9.449417 10.7143004v19.9405035h-8.035726v-37.202432h8.035726v4.7619113c2.45536-3.8690529 6.473223-5.7291745 11.532754-5.7291745zm52.381024-13.91370955h8.035725v52.08340475h-8.035725v-5.3571502c-2.827385 3.9434578-7.217272 6.3244135-13.020851 6.3244135-10.119062 0-18.526812-8.5565594-18.526812-19.5684793 0-11.0863247 8.40775-19.5684792 18.526812-19.5684792 5.803579 0 10.193466 2.3809557 13.020851 6.2500086zm-11.755969 45.38696705c6.696438 0 11.755969-4.9851259 11.755969-11.9047783 0-6.9196523-5.059531-11.9047782-11.755969-11.9047782-6.696437 0-11.755968 4.9851259-11.755968 11.9047782 0 6.9196524 5.059531 11.9047783 11.755968 11.9047783zm46.726255 7.663701c-11.235135 0-19.642884-8.5565594-19.642884-19.5684793 0-11.0863247 8.407749-19.5684792 19.642884-19.5684792 7.291677 0 13.61609 3.7946481 16.592285 9.5982275l-6.919653 4.0178626c-1.636907-3.4970286-5.282745-5.7291745-9.747037-5.7291745-6.547628 0-11.532754 4.9851259-11.532754 11.6815636 0 6.6964378 4.985126 11.6815637 11.532754 11.6815637 4.464292 0 8.11013-2.3065508 9.895847-5.7291745l6.919652 3.9434577c-3.125004 5.8779843-9.449417 9.6726324-16.741094 9.6726324zm29.98516-27.901824c0 6.7708426 20.014908 2.6785751 20.014908 16.4434749 0 7.4404864-6.473223 11.4583491-14.508948 11.4583491-7.440486 0-12.797637-3.3482189-15.178592-8.7053691l6.919652-4.0178627c1.190478 3.3482189 4.166672 5.3571502 8.25894 5.3571502 3.571433 0 6.324413-1.1904778 6.324413-4.1666724 0-6.6220328-20.014908-2.9017896-20.014908-16.2202603 0-6.9940572 6.026794-11.3839442 13.61609-11.3839442 6.101199 0 11.16073 2.8273848 13.7649 7.7381059l-6.770843 3.794648c-1.339287-2.9017897-3.943457-4.2410772-6.994057-4.2410772-2.90179 0-5.431555 1.2648827-5.431555 3.9434578zm34.300642 0c0 6.7708426 20.014909 2.6785751 20.014909 16.4434749 0 7.4404864-6.473223 11.4583491-14.508949 11.4583491-7.440486 0-12.797636-3.3482189-15.178592-8.7053691l6.919652-4.0178627c1.190478 3.3482189 4.166673 5.3571502 8.25894 5.3571502 3.571434 0 6.324414-1.1904778 6.324414-4.1666724 0-6.6220328-20.014909-2.9017896-20.014909-16.2202603 0-6.9940572 6.026794-11.3839442 13.61609-11.3839442 6.101199 0 11.16073 2.8273848 13.7649 7.7381059l-6.770842 3.794648c-1.339288-2.9017897-3.943458-4.2410772-6.994058-4.2410772-2.901789 0-5.431555 1.2648827-5.431555 3.9434578z" fill="#2d3748"/></svg>